:SAMPLES-PER-SECOND 30
:FULLY-SPECIFIED
:DEGREES
56
root  1.88809 37.6616 8.35671 -55.2523 -82.6674 52.7308
RightUpLeg  15.5987 -2.06239 -14.3978
RightLeg  22.6694 -2.7289 -1.38653
RightFoot  -21.1781 1.41602 18.3658
RightToes  -1.33073e-015 0 -3.6325e-017
Spine  8.56118 1.27903 2.25073
Spine1  8.91062 3.50064 -8.78396
HEad  -1.51763 -9.19552 -1.28031
LeftShoulder1  -0.569065 4.97946 -32.4182
LeftArm  -12.3024 15.8042 -41.6128
LeftForeArm  29.3806 -3.57672 -3.83381
LeftHand  -0.024136 5.17236 -1.31517
RightShoulder  -0.753848 -5.7465 26.9734
RightArm  30.5511 4.25137 54.8831
RightForeArm  10.3203 21.4613 4.63745
RightHand  -0.233694 2.44778 -3.66528
LeftUpLeg  -22.0167 5.61006 -5.66748
LeftLeg  28.9782 3.38698 2.37828
LeftFoot  -4.50798 -0.197509 3.73175
LeftToes  -1.93726e-010 2.42366e-011 2.16268e-013
57
root  0.896063 37.7424 8.80593 -56.2567 -82.1413 53.7465
RightUpLeg  11.6083 -0.389956 -14.9026
RightLeg  32.3141 -3.74033 -2.81692
RightFoot  -14.8627 0.605397 19.5963
RightToes  -1.33073e-015 0 -3.6325e-017
Spine  8.49494 1.6131 0.430857
Spine1  9.28231 3.32995 -7.88431
HEad  -0.483564 -9.04069 -1.26727
LeftShoulder1  -0.511562 4.83942 -32.1478
LeftArm  -12.1659 14.2603 -41.5875
LeftForeArm  27.2952 -3.97422 -3.9872
LeftHand  -0.0332458 6.45129 0.433491
RightShoulder  -0.771918 -5.80144 26.9523
RightArm  28.1251 5.17124 54.0857
RightForeArm  11.4828 19.5309 5.07006
RightHand  -0.23844 2.32462 -3.78216
LeftUpLeg  -20.3685 5.63415 -6.708
LeftLeg  29.3809 3.31798 2.37491
LeftFoot  -6.66218 -0.106897 3.60389
LeftToes  -1.93726e-010 2.42366e-011 2.16268e-013
58
root  -0.131627 37.9788 9.24201 -55.7803 -81.9637 53.5137
RightUpLeg  5.41239 0.775588 -14.8611
RightLeg  43.5079 -3.83421 -4.15557
RightFoot  -3.43627 -0.82488 11.6056
RightToes  -1.33073e-015 0 -3.6325e-017
Spine  8.3477 1.58331 -0.373797
Spine1  9.14329 3.0878 -7.25245
HEad  -0.504266 -9.07365 -0.844692
LeftShoulder1  -0.411152 4.60577 -31.1566
LeftArm  -12.0694 12.7833 -42.1845
LeftForeArm  25.5019 -4.98678 -4.20658
LeftHand  -0.0109858 6.45682 2.30443
RightShoulder  -0.700882 -5.6215 26.4288
RightArm  22.9455 5.18568 53.9855
RightForeArm  13.2072 18.025 5.2808
RightHand  -0.262806 2.84774 -3.92654
LeftUpLeg  -18.2025 5.05016 -7.31155
LeftLeg  28.374 3.80722 2.58204
LeftFoot  -8.04945 -0.0531532 3.51802
LeftToes  -1.93726e-010 2.42366e-011 2.16268e-013
59
root  -1.06917 38.1208 9.57668 -54.3507 -81.7346 51.9414
RightUpLeg  -0.425728 1.92959 -14.4419
RightLeg  52.5532 -1.47596 -2.33283
RightFoot  2.45272 -0.836783 6.79077
RightToes  -1.33073e-015 0 -3.6325e-017
Spine  8.8612 1.3975 -1.66072
Spine1  9.12127 2.49465 -6.65965
HEad  -0.527881 -8.95636 -0.57419
LeftShoulder1  -0.287448 4.29132 -30.3788
LeftArm  -12.0691 10.8111 -42.3594
LeftForeArm  25.2607 -6.51234 -4.36535
LeftHand  -0.0198635 6.52665 1.28404
RightShoulder  -0.738461 -5.70211 26.9465
RightArm  19.0897 5.73153 53.2878
RightForeArm  13.0835 16.9878 5.30417
RightHand  -0.25048 2.03379 -4.08603
LeftUpLeg  -16.0075 4.60065 -7.67315
LeftLeg  27.7383 3.97003 2.62157
LeftFoot  -9.54949 0.00644657 3.28683
LeftToes  -1.93726e-010 2.42366e-011 2.16268e-013
60
root  -2.0661 38.3106 9.89833 -53.8969 -81.6834 50.9866
RightUpLeg  -4.9791 3.02876 -13.8764
RightLeg  57.9699 2.30811 3.46891
RightFoot  -0.0794217 -0.768712 7.78141
RightToes  -1.33073e-015 0 -3.6325e-017
Spine  9.28332 1.23896 -3.09278
Spine1  9.3694 1.80184 -5.48423
HEad  -0.31963 -8.42309 -0.278627
LeftShoulder1  -0.225888 4.12568 -30.1936
LeftArm  -11.0084 8.39715 -41.8065
LeftForeArm  24.6954 -8.3055 -5.16708
LeftHand  -0.00164141 6.90464 2.4975
RightShoulder  -0.706115 -5.61744 26.7442
RightArm  16.4846 5.67461 53.0812
RightForeArm  11.2658 16.7192 5.16856
RightHand  -0.293276 2.41182 -4.56992
LeftUpLeg  -13.0115 4.89291 -7.85394
LeftLeg  26.4712 3.86241 2.45028
LeftFoot  -10.8401 0.0504966 3.35707
LeftToes  -1.93726e-010 2.42366e-011 2.16268e-013
61
root  -3.09737 38.4897 10.1832 -51.6883 -81.9135 48.7004
RightUpLeg  -9.73059 3.33141 -12.6862
RightLeg  60.3828 3.46678 6.059
RightFoot  -1.20439 -0.779001 8.67742
RightToes  -1.33073e-015 0 -3.6325e-017
Spine  9.36332 1.01886 -4.08131
Spine1  9.1911 1.14494 -4.45467
HEad  -0.219246 -7.88471 0.189386
LeftShoulder1  -0.278983 4.2675 -30.3976
LeftArm  -10.4285 5.14506 -41.1056
LeftForeArm  24.5565 -9.24856 -5.42721
LeftHand  -0.000890148 6.43493 2.57715
RightShoulder  -0.680817 -5.54947 26.6019
RightArm  15.4238 5.12693 52.6259
RightForeArm  11.022 17.4118 4.84279
RightHand  -0.228956 2.66878 -3.51001
LeftUpLeg  -10.4357 5.0604 -7.60111
LeftLeg  25.1567 3.73607 2.26804
LeftFoot  -12.0609 0.0931564 3.32337
LeftToes  -1.93726e-010 2.42366e-011 2.16268e-013
